<?xml version="1.0" encoding="UTF-8"?>
<!DOCTYPE svg PUBLIC "-//W3C//DTD SVG 1.1//EN" "http://www.w3.org/Graphics/SVG/1.1/DTD/svg11.dtd">
<!-- Creator: CorelDRAW 2019 (64-Bit) -->
<svg xmlns="http://www.w3.org/2000/svg" xml:space="preserve" width="500mm" height="500mm" version="1.1" style="shape-rendering:geometricPrecision; text-rendering:geometricPrecision; image-rendering:optimizeQuality; fill-rule:evenodd; clip-rule:evenodd"
viewBox="0 0 50000 50000"
 xmlns:xlink="http://www.w3.org/1999/xlink">
 <defs>
  <style type="text/css">
   <![CDATA[
    .str2 {stroke:#FEFEFE;stroke-width:282.22;stroke-miterlimit:22.9256}
    .str5 {stroke:#FEFEFE;stroke-width:282.22;stroke-miterlimit:22.9256}
    .str4 {stroke:white;stroke-width:282.22;stroke-miterlimit:22.9256}
    .str1 {stroke:#332C2B;stroke-width:20;stroke-miterlimit:22.9256}
    .str0 {stroke:#252222;stroke-width:20;stroke-miterlimit:22.9256}
    .str3 {stroke:#252222;stroke-width:20;stroke-miterlimit:22.9256}
    .fil0 {fill:none}
    .fil4 {fill:#FFF000}
    .fil6 {fill:#E62129}
    .fil5 {fill:#E62129}
    .fil2 {fill:#7789A4}
    .fil7 {fill:#17A3DF}
    .fil3 {fill:#252222}
    .fil1 {fill:#252222}
   ]]>
  </style>
 </defs>
 <g id="Layer_x0020_1">
  <metadata id="CorelCorpID_0Corel-Layer"/>
  <g id="_1657088790064">
   <path class="fil0 str0" d="M26332.6 28321.84c0.34,0.25 0.68,0.5 1.01,0.75m657.95 475c39.65,27.77 79.39,55.44 119.2,82.99m7573.69 3529.45c183,88.79 365.99,177.57 454.55,220.49 88.56,42.93 82.68,39.99 61.92,-60.98 -20.75,-100.97 -56.38,-299.96 -92.01,-498.96m-11950.8 -6156.03c178.24,173.83 342.9,320.52 510.69,465.6 173.67,150.15 350.72,298.59 527.78,447.01m5263.69 -17367.41c77.76,3104.06 155.51,6208.12 206.15,7766.03 50.64,1557.91 74.15,1569.66 387.58,1584.28 313.44,14.62 916.78,32.1 1520.13,49.58m0 0c413.56,161.26 827.13,322.53 1240.69,483.79m-5859.65 9479.5c1.58,1.29 3.17,2.58 4.75,3.87m-7407.16 -7649.63c53.32,72.41 106.65,144.82 156.13,215.45m641.44 1244.63c72.11,130.26 157.88,276.64 219.38,373.64 75.1,118.45 114.03,163.29 248.16,323.81 132.2,158.22 356.91,428.84 577.27,678.61m-4270.75 -9781.2c-38.78,100.22 -81.36,205.15 -129.81,316.25m-5036.58 -1755.89c-240.84,-30.41 -424.32,-7.91 -529.21,87.53m-193.88 7572.59c1119.83,-1037.82 494.89,-1233.26 383.18,-2385.26 -95.08,-979.63 327.21,-2438.6 509.4,-3557.05l1844.44 1431.66m-1624.92 6702.45c47.8,155.02 109.4,304.6 186.28,454.08m1119.49 1362.27c537.92,-1094.1 447.61,-1713.25 319.35,-2537.6m-143.98 -1864.17c13.01,-422.49 58.64,-908.12 156.29,-1479.22 1381.44,403.57 1724.76,845.59 2911.18,1487.74 520.01,281.5 923.29,483.74 1237.41,623.57m1553.85 637.73c135.56,401.04 302.99,749.4 584.09,1186.71 27.35,42.53 53.79,83.09 79.36,121.75m1044.81 1376.06c32.04,89.38 68.41,196.52 110.68,325.78 -1017.81,485.09 -2711.65,1305.43 -3272.08,2425.86l4759.74 -305.37c54.88,-181.68 109.77,-363.36 164.63,-545.03m817.17 2126.89c-140.02,1200.04 -671.7,2364.71 -1362.56,2821.16 -490.81,324.25 -1887.99,687.32 -3119.61,1304.39m-1362.91 907.02c-434.73,410.75 -731.9,899.15 -775.88,1488.41 1502.68,172.95 2059.62,-38.22 2541.4,-405.6m1876.96 -1258.5c323.73,-134.46 710.88,-264 1183.19,-382.91 3286.63,-827.56 2212.72,-654.77 3671.06,-3178.38 360.36,-623.73 221.34,-399.29 364.63,-539.44m1714.01 1091.15c-345.93,2525.22 -368.85,2569.35 -2352.52,3738.12 -1327.41,782.15 -2453.14,1630.5 -2917.28,2877.92m501.5 396.58l1081.98 9.18m2156.28 -1899.77c816.24,-680.41 1490.16,-816.93 2082.76,-994.94m1121.2 -610.65c320.29,-319.41 624.96,-813.15 929.13,-1626.25l265.51 -653.32 3110.32 1284.42m424.46 -339.45c-14.35,-3018.1 -705.98,-4101.61 838.68,-6716.07 1152.28,752.18 2155.15,1437.79 1954.43,3291.73 -185.64,1714.41 -920.12,2491.81 -2069.66,3663.03l-879.78 802.23c-1777.23,349.26 -3523.25,1196.94 -3948.76,2795.39l5494.19 -1205.18c4604.47,-1336.58 6019.19,-5411.48 4175.22,-8200.14 -996.91,-1507.61 -2090.4,-1869.08 -3899.43,-2831.94 -460.49,-978.94 -390.38,-1996.12 -1143.65,-2851.99 -633.69,-720.03 -1950.45,-1018.78 -2815.33,-1474.21m-3354.55 -9883.68c312.36,-2223.95 734.9,-2202.42 222.37,-4728.34 -572.03,-1030.88 306.28,-479.47 878.73,-1800.91m-660.39 -844.45c-33.55,-32.65 -61.76,-59.79 -88.36,-82.61m-2821.09 26794.19c512.88,359.19 1038.47,700.39 1581.65,1016.55 43.94,25.57 88,51 132.16,76.24m1856.03 -26959.92c-99.48,-214.89 -383.05,-314.87 -426.97,-366.06 -277.62,-323.62 -54.41,-150.61 -273.87,-556.62 -998.11,-96.48 -2129.55,126.46 -3148.05,258.97 -850.52,110.55 -2300.46,-123.82 -3309.72,126.74 -634.9,157.65 289.51,99.03 -660.41,166.06l-2578.81 71.87c-531.75,131.32 -377.02,367.43 -952.3,765.66 -560.73,388.27 -689.12,281.29 -526.26,1185.48l1898.1 24.88c-436.09,819.52 -1007.25,600.32 -672.84,1662.72 2056.12,372.45 1170.76,-1302.34 3599.23,339.62 540.89,365.78 102.6,256.32 842.75,554.88l472.4 197.98c-383.33,755.51 -2456.83,1891.24 -3180.24,2393.45 -2057.58,1428.27 -3669.83,2257.57 -4649.19,4792.22 -1008.35,12.52 -1519.43,-336.15 -2846.1,-909.69 -556.4,-240.56 -1450.22,-736.54 -2191.28,-846.21m-529.02 87.55c-393.99,1073.2 -94.53,1855.86 -742.59,4088.96 -153.99,530.65 -501.75,1541.56 -418.63,1978.39 114.12,599.88 367.26,1283.89 967.34,1505.24m2737 -4510.67c229.04,203.43 405.95,362.18 678.38,543.94 248.09,165.6 621.73,364.31 752.95,527.54l-2506.02 -117.96c-212.51,1614.35 -328.37,2870.15 -456.94,4418.2 -70.87,853.26 -291.25,1222.61 148.41,1870.67 366.8,540.68 668.04,1020.64 1064.09,1276.43m319.34 -2537.6c-155.86,-490.68 -279.79,-1083.48 -143.97,-1864.17m4304.88 632.09c203.86,71.76 419.5,136.81 648.79,192.89l581.95 171.64c122.09,47.33 227.5,144.25 323.11,273.21m601.2 1213.23c123.37,257.58 259.44,497.11 427.42,669.68m7878.85 6614.72c36.92,21.43 73.93,42.74 111,63.94m-5269.58 6614.41c5.98,215.02 111.46,272.78 112.57,275.41 135.33,49.8 264.83,90.12 388.94,121.17m1081.97 9.18c400.83,-121.86 731.3,-400.65 1028.16,-818.74 452.46,-637.18 158.84,-530.37 830.95,-914.89 101,-57.78 200.05,-113.1 297.17,-166.14m2082.75 -994.94c450.75,-202.91 821.84,-384.16 1121.21,-610.65m-1673.92 -3516.44l-111.22 -62.31m111 63.94c-37.07,-21.2 -74.08,-42.51 -111,-63.94l111.22 62.31m-4508.99 -3061.58c-34.24,305.18 -116.95,750.88 -221.3,1214.28m-4482.17 4125.54c-159.82,141.56 -338.18,293.08 -564.16,424.44 -222.6,129.37 -520.85,289.27 -798.75,482.59m1765.52 1082.81c95.31,-100.01 185.14,-205.52 274.31,-310.7 362.43,-427.57 945.87,-718.18 1602.65,-947.81m2968.34 -884.81c219,-88.46 413.56,-185.71 573.91,-296.78m1580.24 -2836.87c14.12,-11.08 33.46,-28.99 60,-56.92m-621.57 -500.29l-1 -0.8m0 0l1 0.8m621.57 500.29c2.23,0.73 4.46,1.47 6.69,2.2m148.78 55.4c-39.69,-27.5 -79.43,-55.17 -119.08,-82.94m-657.95 -475c-0.33,-0.25 -0.67,-0.5 -1.01,-0.75"/>
   <path class="fil0 str1" d="M6416.7 47160.68c-7.53,0 -15.06,-0.11 -22.56,-0.29 7.5,0.17 15.02,0.28 22.56,0.29zm-31.22 -0.56c-4.88,-0.15 -9.75,-0.33 -14.6,-0.56 4.86,0.23 9.72,0.41 14.6,0.56zm-313.77 -61.07c-6.56,-2.42 -13.07,-4.93 -19.56,-7.48 6.49,2.55 13,5.06 19.56,7.48zm241.22 56.17c-7.35,-0.76 -14.68,-1.61 -21.99,-2.53 7.31,0.92 14.64,1.76 21.99,2.53zm-26.11 -3.08c-6.2,-0.82 -12.34,-1.69 -18.5,-2.61 6.15,0.92 12.32,1.8 18.5,2.61zm-28.99 -4.27c-4.24,-0.69 -8.45,-1.37 -12.66,-2.12l12.66 2.12zm-45.61 -8.42c-4.79,-1.01 -9.59,-2.06 -14.35,-3.14 4.78,1.07 9.55,2.13 14.35,3.14zm-22.81 -5.04c-6.99,-1.64 -13.89,-3.33 -20.82,-5.11 6.91,1.77 13.85,3.48 20.82,5.11zm-28.5 -7.16c-4.7,-1.24 -9.36,-2.5 -14.02,-3.82 4.66,1.31 9.33,2.58 14.02,3.82zm-68.03 -20.68c-5.3,-1.82 -10.55,-3.69 -15.82,-5.6 5.25,1.91 10.53,3.78 15.82,5.6zm-112.1 -46.32c-5.16,-2.51 -10.29,-5.08 -15.39,-7.67 5.11,2.6 10.23,5.17 15.39,7.67zm-25.65 -12.96c-4.63,-2.41 -9.24,-4.82 -13.8,-7.31 4.57,2.48 9.18,4.9 13.8,7.31zm-80.88 -47.09c-3.85,-2.5 -7.67,-5.04 -11.47,-7.57 3.81,2.54 7.62,5.08 11.47,7.57zm-80.53 -57.88c-1.89,-1.47 -3.71,-2.96 -5.54,-4.46l5.54 4.46z"/>
   <path class="fil0 str1" d="M7462.51 45394.94c-4.4,-23.97 -6.71,-48.66 -6.71,-73.86l0 -1236.65m0 -1553.84l0 -702.02c0,-225.56 184.54,-410.1 410.1,-410.1 225.56,0 410.1,184.54 410.1,410.1l0 1416.39m0 575.11l0 1501.01c0,12.92 -0.61,25.72 -1.79,38.34"/>
   <path class="fil0 str1" d="M5412.05 46155.26l0 -1957.86m952.44 -952.44l1098.02 0m0 892.91l0 1958.65"/>
   <line class="fil0 str1" x1="5412.05" y1="42530.59" x2="7455.8" y2= "42530.59" />
   <line class="fil0 str1" x1="7462.51" y1="43244.96" x2="8276" y2= "43244.96" />
   <path class="fil0 str1" d="M5412.05 45481.68l0 -1284.28c0,-523.85 428.59,-952.44 952.44,-952.44l145.58 0m945.73 839.47c4.42,37.06 6.71,74.77 6.71,112.97l0 1284.28c0,38.21 -2.29,75.91 -6.71,112.97"/>
   <path class="fil0 str1" d="M7455.8 46022.66l0 -1521.05 6.71 0m811.7 0l0 1931.46"/>
   <path class="fil0 str1" d="M5412.05 42530.59l0 -741.7c0,-552.99 452.44,-1005.42 1005.4,-1005.42l2910.45 0c552.96,0 1005.4,452.43 1005.4,1005.42l0 3913.6m-3916.6 1458.19c-552.62,-0.4 -1004.65,-452.68 -1004.65,-1005.42l0 -1957.86"/>
   <path class="fil0 str1" d="M7462.51 45394.94c-4.4,-23.97 -6.71,-48.66 -6.71,-73.86l0 -1236.65m0 -1553.84l0 -702.02c0,-225.56 184.54,-410.1 410.1,-410.1 225.56,0 410.1,184.54 410.1,410.1l0 1416.39m0 575.11l0 1501.01c0,12.92 -0.61,25.72 -1.79,38.34"/>
   <path class="fil0 str1" d="M5412.05 46155.26l0 -1957.86m952.44 -952.44l1098.02 0m0 892.91l0 1958.65"/>
   <line class="fil0 str1" x1="5412.05" y1="42530.59" x2="7455.8" y2= "42530.59" />
   <line class="fil0 str1" x1="7462.51" y1="43244.96" x2="8276" y2= "43244.96" />
   <path class="fil0 str1" d="M5412.05 45481.68l0 -1284.28c0,-523.85 428.59,-952.44 952.44,-952.44l145.58 0m945.73 839.47c4.42,37.06 6.71,74.77 6.71,112.97l0 1284.28c0,38.21 -2.29,75.91 -6.71,112.97"/>
   <path class="fil0 str1" d="M7865.9 46422.76c-225.56,0 -410.1,-181.75 -410.1,-403.91l0 -1800.81c0,-269.9 212.08,-402.55 420.55,-397.97m399.65 397.97l0 1800.81c0,12.73 -0.61,25.33 -1.79,37.76"/>
   <path class="fil0 str1" d="M7455.8 46022.66l0 -1521.05 6.71 0m811.7 0l0 1931.46"/>
   <path class="fil0 str1" d="M14967.9 47160.68l-2910.45 0c-552.96,0 -1005.4,-452.43 -1005.4,-1005.42l0 -4366.37c0,-552.99 452.44,-1005.42 1005.4,-1005.42l1858.55 0m2057.3 1005.42l0 4366.37"/>
   <path class="fil0 str1" d="M13102.51 45394.94c-4.4,-23.97 -6.71,-48.66 -6.71,-73.86l0 -3492.51c0,-225.56 184.54,-410.1 410.1,-410.1 225.56,0 410.1,184.54 410.1,410.1l0 3492.51"/>
   <path class="fil0 str1" d="M13095.8 43244.96l6.71 0 0 2851.56m-2010.88 337.6l-39.58 0 0 -3189.16"/>
   <line class="fil0 str1" x1="13102.51" y1="43824.13" x2="13095.8" y2= "43824.13" />
   <path class="fil0 str1" d="M13095.8 44084.43c4.42,37.06 6.71,74.77 6.71,112.97l0 1284.28c0,38.21 -2.29,75.91 -6.71,112.97m-2043.75 -112.97l0 -1284.28"/>
   <path class="fil0 str1" d="M13916 44194.23l0 1828.43c0,225.56 -184.54,410.1 -410.1,410.1 -225.56,0 -410.1,-184.54 -410.1,-410.1l0 -1828.43c0,-25.2 2.31,-49.89 6.71,-73.86"/>
   <line class="fil0 str1" x1="7865.9" y1="46422.76" x2="8274.21" y2= "46423.07" />
   <line class="fil0 str1" x1="7855.54" y1="43820.07" x2="8276" y2= "43820.07" />
   <path class="fil0 str1" d="M29029.88 40752.95l1051.9 0c16.64,0 33.21,0.41 49.65,1.22m955.75 1005.42l0 4365.15c0,552.99 -452.44,1005.42 -1005.4,1005.42l-2910.45 0c-552.96,0 -1005.4,-452.43 -1005.4,-1005.42l0 -4366.37m1005.4 -1005.42l1038.35 0"/>
   <path class="fil0 str1" d="M28216.39 45364.42c-4.4,-23.97 -6.71,-48.66 -6.71,-73.86l0 -3492.51m820.2 0l0 3492.51c0,12.92 -0.61,25.72 -1.79,38.34"/>
   <path class="fil0 str1" d="M26165.93 43214.44l0 3189.16 39.58 0m2010.88 -337.6l0 -2851.56 -6.71 0 0 -2461.49"/>
   <line class="fil0 str1" x1="28216.39" y1="43793.61" x2="28209.68" y2= "43793.61" />
   <path class="fil0 str1" d="M28209.68 44053.91c4.42,37.06 6.71,74.77 6.71,112.97l0 1284.28c0,38.21 -2.29,75.91 -6.71,112.97m-2043.75 -112.97l0 -1284.28"/>
   <path class="fil0 str1" d="M29029.88 44163.71l0 1828.43c0,225.56 -184.54,410.1 -410.1,410.1 -225.56,0 -410.1,-184.54 -410.1,-410.1l0 -1828.43c0,-25.2 2.31,-49.89 6.71,-73.86"/>
   <path class="fil0 str1" d="M28209.68 45992.14l0 -1521.05 6.71 0m811.7 857.81l0 701.58"/>
   <path class="fil0 str1" d="M13916 46114.58l0 -3855.31m0 -1475.8l0 -1752.25 2057.3 0 0 8129.46 -2057.3 0"/>
   <path class="fil0 str1" d="M18697.02 40793.3l0 6377.21 -2057.3 0 0 -1046.1 0 -5331.11m0 -492.11l0 -1260.14 2057.3 0 0 1260.14"/>
   <path class="fil0 str1" d="M16639.72 40793.3l2057.3 0m0 -492.11l-2057.3 0"/>
   <polyline class="fil0 str1" points="10333.3,45702.49 10337.06,45702.49 10337.06,47163.27 8277.97,47163.27 6394.14,47160.39 "/>
   <path class="fil0 str1" d="M21703.06 40793.73l2910.45 0c552.96,0 1005.4,452.43 1005.4,1005.42l0 4366.37c0,552.99 -452.44,1005.42 -1005.4,1005.42l-1858.55 0m-2057.3 -1005.42l0 -4366.37"/>
   <path class="fil0 str1" d="M23568.45 42559.47c4.4,23.97 6.71,48.66 6.71,73.86l0 3492.51c0,225.56 -184.54,410.1 -410.1,410.1 -225.56,0 -410.1,-184.54 -410.1,-410.1l0 -3492.51"/>
   <path class="fil0 str1" d="M23575.16 44709.45l-6.71 0 0 -2851.56m2050.46 -58.74l0 2910.3"/>
   <line class="fil0 str1" x1="23568.45" y1="44130.28" x2="23575.16" y2= "44130.28" />
   <path class="fil0 str1" d="M23575.16 43869.98c-4.42,-37.06 -6.71,-74.77 -6.71,-112.97l0 -1284.28c0,-38.21 2.29,-75.91 6.71,-112.97m2043.75 112.97l0 1284.28"/>
   <path class="fil0 str1" d="M22754.96 43760.18l0 -1828.43c0,-225.56 184.54,-410.1 410.1,-410.1 225.56,0 410.1,184.54 410.1,410.1l0 1828.43c0,25.2 -2.31,49.89 -6.71,73.86"/>
   <path class="fil0 str1" d="M22754.96 41839.83l0 3855.31m0 1475.8l0 1752.25 -2057.3 0 0 -8129.46 2057.3 0"/>
   <path class="fil0 str1" d="M40484.93 42432.91l0 -741.7c0,-552.99 -452.44,-1005.42 -1005.4,-1005.42l-2910.45 0m-1005.4 1005.42l0 4366.37m1005.4 1005.42l1051.9 0"/>
   <path class="fil0 str1" d="M38441.18 42432.91l0 -702.02c0,-225.56 -184.54,-410.1 -410.1,-410.1 -225.56,0 -410.1,184.54 -410.1,410.1l0 3492.51c0,12.92 0.61,25.72 1.79,38.34"/>
   <line class="fil0 str1" x1="40484.93" y1="42432.91" x2="38441.18" y2= "42432.91" />
   <path class="fil0 str1" d="M37620.98 44096.55l0 1828.43c0,12.92 0.61,25.72 1.79,38.34"/>
   <line class="fil0 str1" x1="37622.77" y1="45261.74" x2="37622.77" y2= "45963.32" />
   <line class="fil0 str1" x1="29029.88" y1="43714.24" x2="29029.88" y2= "40752.95" />
   <polyline class="fil0 str1" points="28209.68,42751.77 28209.68,40752.95 26165.93,40752.95 26165.93,42751.77 "/>
   <polyline class="fil0 str1" points="28209.68,42751.77 28209.68,40752.95 26165.93,40752.95 26165.93,42751.77 "/>
   <polyline class="fil0 str1" points="30131.43,40754.17 31089.5,40754.17 31089.5,41759.59 31087.18,41759.59 "/>
   <path class="fil0 str1" d="M33975.76 47130.98l-1038.48 0c-552.96,0 -1005.4,-575.66 -1005.4,-1279.27l0 -3703m0 3271.02l0 -3271.02m2453.85 4068.81l675.27 0 0 911.87 -475.91 0m-609.33 -1433.21l0 -4193.27m0 5628.07l0 -12.72 609.33 11.13m-609.46 -1446.4l0 -1935.35 6.71 0m403.39 2469.88c-225.56,0 -410.1,-234.8 -410.1,-521.8l0 -2326.45c0,-32.07 2.31,-63.48 6.71,-93.98m-6.71 -58.45c4.42,47.15 6.71,95.13 6.71,143.73l0 1634.09c0,48.62 -2.29,96.58 -6.71,143.74m-2043.75 -143.74l0 -1634.09m2050.46 -474.93l-6.71 0m0 -736.93l6.71 0 0 3628.26m-2050.46 74.74l0 -3703m2050.46 2735.59c-4.4,-30.51 -6.71,-61.91 -6.71,-93.98l0 -3287.41"/>
   <path class="fil0 str1" d="M18697.02 40793.3l0 6377.21 -2057.3 0 0 -1046.1 0 -5331.11m0 -492.11l0 -1260.14 2057.3 0 0 1260.14"/>
   <polyline class="fil0 str1" points="37620.98,41730.89 37620.98,47063 35563.68,47063 35563.68,40685.79 37620.98,40685.79 "/>
   <rect class="fil0 str1" x="40998.35" y="40686.48" width="4899.84" height="6375.8" rx="1006.64" ry="1006.64"/>
   <path class="fil0 str1" d="M43884.3 42354.26c4.4,23.97 6.71,48.66 6.71,73.86l0 3492.51c0,225.56 -184.54,410.1 -410.1,410.1 -225.56,0 -410.1,-184.54 -410.1,-410.1l0 -3492.51"/>
   <path class="fil0 str1" d="M43070.81 43554.97l0 -1828.43c0,-225.56 184.54,-410.1 410.1,-410.1 225.56,0 410.1,184.54 410.1,410.1l0 1828.43c0,25.2 -2.31,49.89 -6.71,73.86"/>
   <path class="fil0 str1" d="M31931.88 44542.39l-13.34 0 0 -3039.48m0 -800.19l0 -1825.79 2057.3 0 -0.07 1825.79"/>
   <path class="fil0 str1" d="M33975.77 40702.72l1171 0 0 800.19 -1171.14 0m-2057.09 0l-370.1 0 0 -800.19 370.1 0"/>
   <path class="fil1 str1" d="M7455.8 44501.61l0 -283.57 0 -133.61c2.43,20.41 4.22,41.03 5.34,61.81 0.43,-2.81 0.89,-5.59 1.37,-8.36 36.21,-207.96 213.29,-313.89 393.03,-317.81 6.94,-0.15 13.87,-0.15 20.81,0l399.65 0 0 397.97 0 1103.04 0 697.77c0,12.73 -0.61,25.33 -1.79,37.76l0 366.46 -408.31 -0.31c-200.36,0 -368.35,-143.41 -403.39,-331.16 -4.18,-22.4 -6.47,-45.44 -6.71,-68.94l0 -428.01 0 -273.57 0 -819.47zm2877.5 1200.88l0 -3913.6c0,-552.99 -452.44,-1005.42 -1005.4,-1005.42l-2910.45 0c-552.96,0 -1005.4,452.43 -1005.4,1005.42l0 741.7 2043.75 0 0 -702.02c0,-225.56 184.54,-410.1 410.1,-410.1 225.56,0 410.1,184.54 410.1,410.1l0 1416.39 -813.49 0 -1098.02 0c-523.85,0 -952.44,428.59 -952.44,952.44l0 1957.86c0,545.2 439.78,992.66 982.09,1005.13l1883.83 2.88 2059.09 0 0 -1460.78 -3.76 0zm-2877.5 -381.41l0 -819.47 0 819.47z"/>
   <path class="fil2 str1" d="M11052.05 46155.26c0,96.65 13.82,190.23 39.58,278.86 121.64,418.46 509.51,726.56 965.82,726.56l1858.55 0 2057.3 0 0 -8129.46 -2057.3 0 0 1752.25 -1858.55 0c-552.96,0 -1005.4,452.43 -1005.4,1005.42l0 4366.37zm2043.75 -1961.03l0 -109.8 0 -260.3 0 -579.17 0 -1416.39c0,-225.56 184.54,-410.1 410.1,-410.1 225.56,0 410.1,184.54 410.1,410.1l0 430.7 0 3763.39c0,225.56 -184.54,410.1 -410.1,410.1 -200.36,0 -368.36,-145.61 -403.39,-336.24 -4.41,-23.97 -6.71,-48.66 -6.71,-73.86l0 -428.01 0 -273.57 0 -1126.85z"/>
   <polygon class="fil2 str1" points="16639.72,40793.3 16639.72,46124.41 16639.72,47170.51 18697.02,47170.51 18697.02,40793.3 "/>
   <polygon class="fil2 str1" points="16639.72,40301.19 18697.02,40301.19 18697.02,39041.05 16639.72,39041.05 "/>
   <path class="fil2 str1" d="M20697.66 40793.73l0 8129.46 2057.3 0 0 -1752.25 1858.55 0c552.96,0 1005.4,-452.43 1005.4,-1005.42l0 -4366.37c0,-552.99 -452.44,-1005.42 -1005.4,-1005.42l-1858.55 0 -2057.3 0zm2057.3 1839.6l0 -701.58c0,-225.56 184.54,-410.1 410.1,-410.1 200.36,0 368.36,145.61 403.39,336.24 4.41,23.97 6.71,48.66 6.71,73.86l0 428.01 0 273.57 0 1126.85 0 109.8 0 260.3 0 579.17 0 1416.39c0,225.56 -184.54,410.1 -410.1,410.1 -225.56,0 -410.1,-184.54 -410.1,-410.1l0 -2365.66 0 -1126.85z"/>
   <path class="fil2 str1" d="M26165.93 42751.77l0 462.67 0 2910.3c0,96.65 13.82,190.23 39.58,278.86 121.64,418.46 509.51,726.56 965.82,726.56l2910.45 0c552.96,0 1005.4,-452.43 1005.4,-1005.42l0 -4365.15 2.32 0 0 -1005.42 -958.07 0c-16.44,-0.81 -33.01,-1.22 -49.65,-1.22l-1051.9 0 0 1045.1 0 2365.66 0 1126.85 0 701.58c0,12.92 -0.61,25.71 -1.79,38.34 -19.49,207.76 -195.67,371.76 -408.31,371.76 -200.36,0 -368.36,-145.61 -403.39,-336.24 -4.41,-23.97 -6.71,-48.66 -6.71,-73.86l0 -428.01 0 -273.57 0 -819.47 0 -307.38 0 -109.8 0 -260.3 0 -579.17 0 -2461.49 -2043.75 0 0 1998.82z"/>
   <path class="fil2 str1" d="M31931.88 44542.39l0 1309.32c0,703.61 452.44,1279.27 1005.4,1279.27l1038.48 0 0 -12.72 609.33 11.13 475.91 0 0 -911.87 -675.27 0c-225.44,0 -409.9,-234.55 -410.1,-521.34 0,-0.15 0,-0.31 0,-0.46l0 -557.32 0 -348.08 0 -1042.68 0 -378.37 0 -152.43 0 -331.2 0 -736.93 0 -645.8 1171.14 0 0 -800.19 -1171 0 0.07 -1825.79 -2057.3 0 0 1825.79 -370.1 0 0 800.19 370.1 0 0 3039.48 13.34 0z"/>
   <path class="fil2 str1" d="M35563.68 40685.79l0 6377.21 2057.3 0 0 -1138.02 0 -701.58 0 -3492.51c0,-225.56 184.54,-410.1 410.1,-410.1 225.56,0 410.1,184.54 410.1,410.1l0 702.02 2043.75 0 0 -741.7c0,-552.99 -452.44,-1005.42 -1005.4,-1005.42l-1858.55 0 -2057.3 0z"/>
   <path class="fil1 str1" d="M40998.35 41693.12l0 4362.52c0,553.66 452.98,1006.64 1006.64,1006.64l2886.56 0c553.66,0 1006.64,-452.98 1006.64,-1006.64l0 -4362.52c0,-553.66 -452.98,-1006.64 -1006.64,-1006.64l-2886.56 0c-553.66,0 -1006.64,452.98 -1006.64,1006.64zm2072.46 735l0 -701.58c0,-225.56 184.54,-410.1 410.1,-410.1 225.56,0 410.1,184.54 410.1,410.1l0 701.58 0 1126.85 0 2365.66c0,225.56 -184.54,410.1 -410.1,410.1 -225.56,0 -410.1,-184.54 -410.1,-410.1l0 -3492.51z"/>
   <path class="fil2 str1" d="M15973.3 47160.68l0 -8129.46 -2057.3 0 0 1752.25 -1858.55 0c-552.96,0 -1005.4,452.43 -1005.4,1005.42l0 1456.07 0 2910.3c0,96.65 13.82,190.23 39.58,278.86 121.64,418.46 509.51,726.56 965.82,726.56l1858.55 0 2057.3 0zm-2057.3 -1839.6l0 701.58c0,225.56 -184.54,410.1 -410.1,410.1 -200.36,0 -368.36,-145.61 -403.39,-336.24 -4.41,-23.97 -6.71,-48.66 -6.71,-73.86l0 -428.01 0 -273.57 0 -1126.85 0 -109.8 0 -260.3 0 -579.17 0 -1416.39c0,-225.56 184.54,-410.1 410.1,-410.1 225.56,0 410.1,184.54 410.1,410.1l0 2365.66 0 1126.85zm-820.2 -1126.85l0 1126.85 0 -1126.85z"/>
   <polygon class="fil2 str1" points="16639.72,40793.3 16639.72,46124.41 16639.72,47170.51 18697.02,47170.51 18697.02,40793.3 "/>
   <path class="fil1 str1" d="M20697.66 40793.73l0 8129.46 2057.3 0 0 -1752.25 1858.55 0c552.96,0 1005.4,-452.43 1005.4,-1005.42l0 -4366.37c0,-552.99 -452.44,-1005.42 -1005.4,-1005.42l-1858.55 0 -2057.3 0zm2057.3 1138.02c0,-225.56 184.54,-410.1 410.1,-410.1 200.36,0 368.36,145.61 403.39,336.24 4.41,23.97 6.71,48.66 6.71,73.86l0 428.01 0 273.57 0 1126.85 0 109.8 0 260.3 0 579.17 0 1416.39c0,225.56 -184.54,410.1 -410.1,410.1 -225.56,0 -410.1,-184.54 -410.1,-410.1l0 -2365.66 0 -1828.43zm0 701.58l0 -701.58 0 701.58zm0 1126.85l0 -1126.85 0 1126.85zm820.2 0l0 -1126.85 0 1126.85z"/>
   <path class="fil1 str1" d="M13095.8 45321.08l0 -1126.85 0 -109.8 0 -260.3 0 -579.17 0 -1416.39c0,-225.56 184.54,-410.1 410.1,-410.1 225.56,0 410.1,184.54 410.1,410.1l0 430.7 0 1934.96 0 1828.43c0,225.56 -184.54,410.1 -410.1,410.1 -200.36,0 -368.36,-145.61 -403.39,-336.24 -4.41,-23.97 -6.71,-48.66 -6.71,-73.86l0 -428.01 0 -273.57zm820.2 -3061.81l0 -430.7 0 430.7zm0 1934.96l0 -1934.96 0 3763.39 0 -1828.43zm2057.3 2966.45l0 -8129.46 -2057.3 0 0 1752.25 -1858.55 0c-552.96,0 -1005.4,452.43 -1005.4,1005.42l0 1456.07 0 2910.3c0,96.65 13.82,190.23 39.58,278.86 121.64,418.46 509.51,726.56 965.82,726.56l1858.55 0 2057.3 0z"/>
   <polygon class="fil2 str1" points="16639.72,40793.3 16639.72,46124.41 16639.72,47170.51 18697.02,47170.51 18697.02,40793.3 "/>
   <polygon class="fil1 str1" points="16639.72,40301.19 18697.02,40301.19 18697.02,39041.05 16639.72,39041.05 "/>
   <polygon class="fil1 str1" points="18697.02,40793.3 16639.72,40793.3 16639.72,46124.41 16639.72,47170.51 18697.02,47170.51 "/>
   <path class="fil1 str1" d="M26165.93 46124.74c0,96.65 13.82,190.23 39.58,278.86 121.64,418.46 509.51,726.56 965.82,726.56l2910.45 0c552.96,0 1005.4,-452.43 1005.4,-1005.42l0 -4365.15 2.32 0 0 -1005.42 -958.07 0c-16.44,-0.81 -33.01,-1.22 -49.65,-1.22l-1051.9 0 0 1045.1 0 2365.66 0 1126.85 0 701.58c0,12.92 -0.61,25.71 -1.79,38.34 -19.49,207.76 -195.67,371.76 -408.31,371.76 -200.36,0 -368.36,-145.61 -403.39,-336.24 -4.41,-23.97 -6.71,-48.66 -6.71,-73.86l0 -428.01 0 -273.57 0 -819.47 0 -307.38 0 -109.8 0 -260.3 0 -579.17 0 -2461.49 -2043.75 0 0 1005.42 0 4366.37z"/>
   <path class="fil1 str1" d="M31918.54 41502.91l0 3039.48 13.34 0 0 1309.32c0,703.61 452.44,1279.27 1005.4,1279.27l1038.48 0 0 -12.72 609.33 11.13 475.91 0 0 -911.87 -675.27 0c-225.44,0 -409.9,-234.55 -410.1,-521.34 0,-0.15 0,-0.31 0,-0.46l0 -557.32 0 -348.08 0 -1042.68 0 -378.37 0 -152.43 0 -331.2 0 -736.93 0 -645.8 1171.14 0 0 -800.19 -1171 0 0.07 -1825.79 -2057.3 0 0 1825.79 -370.1 0 0 800.19 370.1 0z"/>
   <path class="fil1 str1" d="M35563.68 40685.79l0 6377.21 2057.3 0 0 -1138.02 0 -701.58 0 -3492.51c0,-225.56 184.54,-410.1 410.1,-410.1 225.56,0 410.1,184.54 410.1,410.1l0 702.02 2043.75 0 0 -741.7c0,-552.99 -452.44,-1005.42 -1005.4,-1005.42l-1858.55 0 -2057.3 0z"/>
   <path class="fil1" d="M32814.82 19343.43c-413.56,-161.26 -827.13,-322.53 -1240.69,-483.79 -603.35,-17.48 -1206.69,-34.96 -1520.13,-49.58 -313.43,-14.62 -336.94,-26.37 -387.58,-1584.28 -50.64,-1557.91 -128.39,-4661.97 -206.15,-7766.03 312.36,-2223.95 734.9,-2202.42 222.37,-4728.34 -572.03,-1030.88 306.28,-479.47 878.73,-1800.91 -99.48,-214.89 -383.05,-314.87 -426.97,-366.06 -257.87,-300.6 -83.63,-172.71 -233.42,-478.39 -33.55,-32.65 -61.76,-59.79 -88.36,-82.61 -986.3,-85 -2097.9,132.96 -3100.14,263.35 -850.52,110.55 -2300.46,-123.82 -3309.72,126.74 -634.9,157.65 289.51,99.03 -660.41,166.06l-2578.81 71.87c-531.75,131.32 -377.02,367.43 -952.3,765.66 -560.73,388.27 -689.12,281.29 -526.26,1185.48l1898.1 24.88c-436.09,819.52 -1007.25,600.32 -672.84,1662.72 2056.12,372.45 1170.76,-1302.34 3599.23,339.62 540.89,365.78 102.6,256.32 842.75,554.88l472.4 197.98c-383.33,755.51 -2456.83,1891.24 -3180.24,2393.45 -1969.56,1367.17 -3531.07,2185.52 -4519.99,4475.98 -37.3,96.4 -78.12,197.15 -124.29,303.56 -1.64,4.22 -3.28,8.45 -4.91,12.68 -0.2,0 -0.41,0.01 -0.61,0.01 -1007.95,12.37 -1519.09,-336.28 -2845.49,-909.7 -556.35,-240.54 -1450.07,-736.46 -2191.09,-846.19 -240.84,-30.41 -424.32,-7.91 -529.21,87.53 -393.99,1073.2 -94.53,1855.86 -742.59,4088.96 -153.99,530.65 -501.75,1541.56 -418.63,1978.39 114.12,599.88 367.26,1283.89 967.34,1505.24 1119.83,-1037.82 494.89,-1233.26 383.18,-2385.26 -95.08,-979.63 327.21,-2438.6 509.4,-3557.05l1844.42 1431.64c229.04,203.43 405.95,362.18 678.38,543.94 248.09,165.6 621.73,364.31 752.95,527.54l-2506.02 -117.96c-212.51,1614.35 -328.37,2870.15 -456.94,4418.2 -49.12,591.42 -170.07,950.35 -93.27,1330.75 47.8,155.02 109.4,304.6 186.28,454.08 17.18,28.1 35.62,56.69 55.4,85.84 366.8,540.68 668.04,1020.64 1064.09,1276.43 537.92,-1094.1 447.61,-1713.25 319.34,-2537.6 -155.86,-490.68 -279.79,-1083.48 -143.97,-1864.17 13.01,-422.49 58.64,-908.12 156.29,-1479.22 1381.44,403.57 1724.76,845.59 2911.18,1487.74 520.01,281.5 923.29,483.74 1237.41,623.57 203.86,71.76 419.5,136.81 648.79,192.89l581.95 171.64c67.74,26.26 130.34,67.79 188.99,121.58 47.05,43.16 91.56,94.22 134.12,151.62 7.24,21.42 14.57,42.69 22.01,63.83 131.76,374.68 295.99,708.93 562.08,1122.88 5.74,8.93 11.45,17.77 17.11,26.53 21.31,32.95 42.05,64.68 62.25,95.22 72.11,130.26 157.88,276.64 219.38,373.64 51.49,81.21 85.97,127.81 145.79,200.82 27.43,33.48 60.2,72.52 102.37,122.99 132.2,158.22 356.91,428.84 577.27,678.61 32.04,89.38 68.41,196.52 110.68,325.78 -1017.81,485.09 -2711.65,1305.43 -3272.08,2425.86l4759.74 -305.37c54.88,-181.68 109.77,-363.36 164.63,-545.03 178.24,173.83 342.9,320.52 510.69,465.6 173.67,150.15 350.72,298.59 527.78,447.01 -34.24,305.18 -116.95,750.88 -221.3,1214.28 -140.02,1200.04 -671.7,2364.71 -1362.56,2821.16 -490.81,324.25 -1887.99,687.32 -3119.61,1304.38 -159.82,141.56 -338.18,293.08 -564.16,424.44 -222.6,129.37 -520.85,289.27 -798.75,482.59 -434.73,410.75 -731.9,899.15 -775.88,1488.41 1502.68,172.95 2059.62,-38.22 2541.4,-405.6 95.31,-100.01 185.14,-205.52 274.31,-310.7 362.43,-427.57 945.87,-718.18 1602.65,-947.8 323.73,-134.46 710.88,-264 1183.19,-382.91 843.34,-212.35 1399.57,-358.83 1785.15,-501.91 219,-88.46 413.56,-185.71 573.91,-296.78 472.14,-370.88 474.84,-931.01 1312,-2379.69 190.34,-329.45 241.36,-422.27 268.25,-457.18 11.64,-15.11 18.76,-19.36 30.7,-27.27 8.63,-8.33 18.35,-18.14 29.29,-29.65 2.23,0.73 4.46,1.47 6.69,2.2 8.32,-7.21 18.08,-16.18 29.67,-27.5 512.88,359.19 1038.47,700.39 1581.65,1016.55 7.05,4.1 14.09,8.2 21.17,12.25l111.22 62.31c-0.07,0.54 -0.15,1.09 -0.22,1.63 -345.72,2523.61 -369.06,2567.97 -2352.3,3736.49 -1327.41,782.15 -2453.14,1630.5 -2917.28,2877.92 5.98,215.02 111.46,272.78 112.57,275.41 135.33,49.8 264.83,90.12 388.93,121.17l1081.98 9.18c400.83,-121.86 731.3,-400.65 1028.16,-818.74 452.46,-637.18 158.84,-530.37 830.95,-914.89 101,-57.78 200.05,-113.1 297.17,-166.14 816.24,-680.41 1490.16,-816.93 2082.75,-994.94 450.75,-202.91 821.84,-384.16 1121.21,-610.65 320.29,-319.41 624.96,-813.15 929.13,-1626.25l265.51 -653.32 3110.32 1284.42c183,88.79 365.99,177.57 454.55,220.49 88.56,42.93 82.68,39.99 61.92,-60.98 -20.75,-100.97 -56.38,-299.96 -92.01,-498.96 -14.35,-3018.1 -705.98,-4101.61 838.68,-6716.07 1152.28,752.18 2155.15,1437.79 1954.43,3291.73 -185.64,1714.41 -920.12,2491.81 -2069.66,3663.03l-915.05 599.38c-2274.96,936.85 -3487.98,1399.79 -3913.49,2998.24l5494.19 -1205.18c4604.47,-1336.58 6019.19,-5411.48 4175.22,-8200.14 -996.91,-1507.61 -2090.4,-1869.08 -3899.43,-2831.94 -460.49,-978.94 -390.38,-1996.12 -1143.65,-2851.99 -633.69,-720.03 -1950.45,-1018.78 -2815.33,-1474.21z"/>
   <path class="fil3" d="M32702.8 8620.08c-2575.51,1745.49 1342.35,1095.08 2665.47,1089.31l1139.19 -1785.66c205.56,-670.4 220.07,-1556.17 45.45,-2184.67 -343.37,-1235.58 -1402.5,-1775.86 -2809.81,-1795.75 -24.12,3108.69 1824.58,1148.22 -1040.3,4676.77z"/>
   <path class="fil3" d="M30699.57 6169.59c-21.04,1296.99 773.14,1748.57 2005.83,1741.94 331.16,-464.37 1105.07,-904.7 1150.33,-1805.65l-3156.16 63.71z"/>
   <path class="fil3" d="M30635.28 5657.76c129.06,-38.06 -825.61,68.42 3111.95,71.3 1.64,-603.9 -271.67,-1295.15 -532.4,-1714.73 -1004.45,-146.17 -2449.43,612.36 -2579.55,1643.43z"/>
   <line class="fil0 str0" x1="33522.31" y1="7593.99" x2="34864.99" y2= "6218.89" />
   <path class="fil0 str1" d="M32489.56 8779.51c36.48,-12.96 119.98,-73.33 171.13,-130.71"/>
   <path class="fil1 str2" d="M31811.56 20771.04c1497.36,-1087.68 2994.71,-2175.45 3927.09,-4093.06 932.37,-1917.6 1299.67,-4665.14 1483.42,-6038.91 183.64,-1373.77 183.64,-1373.77 183.64,-1373.77 -1907.03,247.18 -3814.06,494.45 -5692.85,494.45 -1878.78,0 -3729.3,-247.27 -4654.57,-370.86 -925.26,-123.59 -925.26,-123.59 -925.26,-123.59 197.68,2620.4 395.46,5240.89 1341.86,7158.5 946.41,1917.6 2641.54,3132.42 4336.67,4347.24z"/>
   <path class="fil4 str1" d="M34776.17 16128.45c-706.29,1452.61 -1840.56,2276.61 -2974.82,3100.54 -1284.09,-920.24 -2568.17,-1840.48 -3285.09,-3293.09 -716.91,-1452.62 -866.73,-3437.67 -1016.48,-5422.66 0,0 0,0 700.9,93.62 700.9,93.62 2102.7,280.93 3525.9,280.93 1423.2,0 2867.81,-187.31 4312.41,-374.55 0,0 0,0 -139.11,1040.65 -139.19,1040.65 -417.43,3121.94 -1123.71,4574.56z"/>
   <g>
    <path class="fil5" d="M32562.82 11843.83c-258.16,276.4 -387.18,608.34 -387.18,996.86l0 3151.71 792.83 0 0 -1795.68c0,-87.08 36.47,-130.62 109.64,-130.62 20.43,0 40.74,4.41 61.05,13.04 158.57,65.31 325.21,98.02 500.05,98.02 117.94,0 242.01,-13.04 372.07,-39.23 239.81,-113.17 432.88,-286.18 579.33,-519.04 146.34,-232.97 219.5,-493.07 219.5,-780.41 0,-387.37 -128.1,-719.3 -384.18,-995.7 -256.2,-276.51 -567.1,-414.71 -933.05,-414.71 -361.92,0 -671.89,138.2 -930.06,415.76zm561.1 596.35c103.64,-108.76 226.66,-163.24 368.96,-163.24 146.33,0 270.28,54.48 371.95,163.24 101.67,108.85 152.45,241.59 152.45,398.3 0,156.71 -50.78,289.55 -152.45,398.41 -101.67,108.75 -225.62,163.23 -371.95,163.23 -142.3,0 -265.32,-54.48 -368.96,-163.23 -103.74,-108.86 -155.45,-241.7 -155.45,-398.41 0,-156.71 51.71,-289.45 155.45,-398.3z"/>
    <path class="fil6" d="M31705.71 15992.4l0 -3151.71c0,-388.52 -128.1,-720.46 -384.19,-996.86 -256.2,-277.56 -567.1,-415.76 -933.05,-415.76 -361.91,0 -671.78,138.2 -930.05,415.76 -258.17,276.4 -387.19,608.34 -387.19,996.86l0 3151.71 792.84 0 0 -1174.29c0,-88.14 40.62,-131.69 121.98,-131.69l804.95 0c81.25,0 121.87,43.55 121.87,131.69l0 1174.29 792.84 0zm-792.84 -3153.92l0 1038.3c0,87.08 -40.62,130.63 -121.87,130.63l-804.95 0c-81.36,0 -121.98,-43.55 -121.98,-130.63l0 -1038.3c0,-156.71 51.81,-289.45 155.45,-398.3 103.63,-108.76 226.65,-163.24 368.95,-163.24 146.33,0 270.39,54.48 371.95,163.24 101.67,108.85 152.45,241.59 152.45,398.3z"/>
   </g>
   <path class="fil0 str1" d="M27916.85 9417.71c-575.95,-71.07 -1150.12,-173.03 -1437.2,-224 -287.08,-50.98 -287.08,-50.98 -287.08,-50.98"/>
   <path class="fil0 str0" d="M26192.61 9042.73c0,33.58 -0.01,66.92 -0.04,100 0,0 0,0 287.08,50.98 287.08,50.97 861.25,152.93 1437.2,224"/>
   <path class="fil0 str1" d="M36507.46 7923.73c-49.55,171.54 -99.11,343.08 -164.05,509.18 -64.94,166.09 -145.27,326.75 -236.41,492.04 -91.13,165.29 -193.07,335.21 -280.35,425.58 -87.28,90.37 -159.88,101.19 -232.49,112 -1152.41,125.12 -2304.82,250.26 -3010.78,283.48 -705.96,33.21 -965.47,-25.5 -1077.47,-64.11 -111.99,-38.62 -76.48,-57.17 -40.96,-75.71 195.68,-156.02 391.34,-312.04 489.17,-390.05 97.84,-78.01 97.84,-78.01 95.12,-75.15 -2.71,2.86 -8.15,8.56 -13.58,14.28"/>
   <path class="fil1 str3" d="M36343.41 8432.91c64.94,-166.1 114.5,-337.64 164.05,-509.18l-986.79 1546.78c24.49,-2.66 48.99,-5.32 73.49,-7.98 72.61,-10.81 145.21,-21.63 232.49,-112 87.28,-90.37 189.22,-260.29 280.35,-425.58 91.14,-165.29 171.47,-325.95 236.41,-492.04z"/>
   <path class="fil1 str3" d="M32133.69 9755.43c-318.23,-90.42 -411.88,-273.33 -84.46,-614.45 0.21,-0.22 0.42,-0.46 0.64,-0.68 1.18,-1.45 -7.36,5.36 -95.75,75.84 -97.83,78.01 -293.49,234.03 -489.17,390.05 -35.52,18.54 -71.03,37.09 40.96,75.71 84.05,28.98 251.19,69.28 627.78,73.53z"/>
   <path class="fil0 str4" d="M26145.02 9424.13c-3.98,-91.34 -8,-182.88 -11.99,-274.43 0,0 0,0 447.71,81.35 447.72,81.34 1343.13,244.05 2597.22,371.74 1254.08,127.69 2866.82,220.38 4297.89,139.02 1431.07,-81.35 2680.47,-336.72 3305.17,-464.41 624.69,-127.7 624.69,-127.7 624.69,-127.7"/>
   <ellipse class="fil0 str0" cx="33620.16" cy="6040.82" rx="2984.87" ry="2044.24"/>
   <path class="fil1 str0" d="M33747.23 5729.06c-2209.23,-1.62 -2878.41,-35.84 -3063.01,-58.86 -32.14,120.2 -48.94,244.06 -48.94,370.61 0,161.91 27.49,319.41 79.43,470.45 -11.96,-106.72 -17.11,-220.51 -15.14,-341.67l3156.16 -63.72c-45.27,900.96 -819.16,1341.3 -1150.33,1805.65 -110.95,0.6 -218.34,-2.52 -321.91,-9.62 241.43,75.37 500.09,129.34 770.84,158.4 137.07,-171.45 259.28,-326.17 367.98,-466.31 1629.15,-2100.36 218.75,-920.17 220.56,-3595.72 -40.7,-1.12 -81.61,-1.69 -122.71,-1.69 -137.29,0 -272.41,6.35 -404.79,18.64 260.57,419.66 533.5,1110.38 531.86,1713.84z"/>
   <path class="fil0 str5" d="M33416.63 3784.46c166.83,376.93 333.67,753.85 471.46,1125.25 137.79,371.41 246.53,737.31 242.57,1101.26 -3.96,363.93 -120.63,725.94 -372.74,1108.38 -252.1,382.44 -639.64,785.33 -833.41,986.77 -193.76,201.45 -193.76,201.45 -193.76,201.45"/>
   <line class="fil0 str4" x1="34175.76" y1="5888.48" x2="30478.37" y2= "5853.9" />
   <path class="fil7" d="M36286.25 5059.64c173.66,243.69 278.64,514.56 297.7,800.76 120.44,606.03 89.42,1377.96 -94.43,1977.6 -24.76,85.72 -49.53,171.45 -76.21,256.49 0,0 0,0 372.66,9.27 372.66,9.27 1117.97,27.81 1490.63,37.08 372.66,9.27 372.66,9.27 391.2,-95.78 18.54,-105.05 55.6,-315.14 98.86,-531.41 43.25,-216.27 92.69,-438.71 105.05,-710.59 12.36,-271.88 -12.36,-593.2 -67.97,-945.4 -55.61,-352.21 -142.12,-735.31 -265.7,-1124.6 -123.58,-389.28 -284.25,-784.74 -525.24,-1130.77 -240.97,-346.03 -562.29,-642.63 -933.03,-902.15 -370.74,-259.53 -790.92,-481.97 -1223.46,-648.8 -432.53,-166.84 -877.43,-278.07 -1402.65,-346.03 -525.23,-67.98 -1130.78,-92.69 -1427.38,-98.87 -296.59,-6.18 -284.23,6.18 -116.31,393.62 167.94,387.44 491.45,1149.95 814.96,1912.48 0.01,-18.14 0.08,-36.47 0.23,-54.97 1157.29,16.37 2079.12,384.64 2561.09,1202.07z"/>
   <path class="fil0 str4" d="M33743.1 3943.31c236.02,19.9 472.05,39.81 713.54,83.83 241.5,44.02 488.48,112.14 721.51,212.1 233.02,99.97 452.08,231.77 637.42,388.1 185.35,156.33 336.99,337.18 454.25,526.56 117.28,189.37 200.18,387.27 259.32,590.13 59.15,202.86 94.53,410.69 113.82,610.93 19.28,200.23 22.49,392.87 15.61,572.45 -6.87,179.58 -23.8,346.12 -50.67,510.01 -26.86,163.87 -63.65,325.09 -109.38,490.57 -45.74,165.47 -100.43,335.2 -167.18,502.06 -66.73,166.87 -145.54,330.89 -243.53,504.3 -97.98,173.41 -215.15,356.21 -273.74,447.62 -58.58,91.39 -58.58,91.39 -58.58,91.39"/>
   <path class="fil0 str4" d="M33763.89 3966.75c-108.44,0.97 -216.87,1.96 -271.09,2.45 -54.22,0.49 -54.22,0.49 -54.22,0.49"/>
   <path class="fil0 str4" d="M25975.31 2239.46c21.04,250.5 31.59,503.14 31.59,756.1 0,1705.67 -478.55,3312.32 -1292.33,4338.81"/>
   <path class="fil0 str4" d="M22863.23 2498.43c4.11,98.41 6.17,197.03 6.17,295.68 0,1201.31 -304.52,2346.19 -837.85,3150.03"/>
   <line class="fil0 str4" x1="18172.7" y1="4607.48" x2="25878.45" y2= "4509.02" />
   <path class="fil0 str4" d="M27810.31 17027.08c-1778,573.34 -3556.01,1146.69 -4477.35,1509.8 -921.34,363.1 -986.01,515.97 -1162.41,1442.01 -176.41,926.04 -464.55,2625.26 -752.68,4324.47"/>
   <path class="fil0 str4" d="M30214.25 19586.14c-1858.64,496.26 -3717.27,992.53 -5575.91,1488.79 -64.78,67.8 -129.56,135.6 -423.05,1110.25 -293.5,974.64 -815.71,2856.12 -1337.92,4737.61"/>
   <path class="fil0 str4" d="M23839.55 18346.56c203.54,275.7 325.47,626.82 325.47,1009.15 0,886.49 -655.47,1605.14 -1464.03,1605.14 -244.3,0 -474.63,-65.62 -677.12,-181.63"/>
   <path class="fil0 str4" d="M16756.84 13428.99c246.94,1211.22 493.87,2422.43 723.18,3310.26 229.3,887.83 440.96,1452.28 751.98,2117.77 311.02,665.49 721.4,1432.03 1273.21,2331.38 551.81,899.35 1245.07,1931.52 1938.32,2963.68"/>
   <path class="fil0 str4" d="M23158.11 25914.55c346.16,304.2 692.31,608.41 1071.82,916.09 379.51,307.68 792.36,618.84 1148.53,868.08 356.17,249.25 655.66,436.59 934.9,623.23 279.25,186.65 538.27,372.62 911.53,621.21 373.26,248.59 860.78,559.8 1322.36,824.41 461.59,264.62 897.26,482.63 1285.6,656.31 388.34,173.68 729.36,303.03 1070.37,485.29 341.02,182.27 682.04,417.45 870.18,532.1 188.15,114.65 223.42,108.77 258.7,102.89"/>
  </g>
 </g>
</svg>
